<svg width="52" height="64" viewBox="0 0 52 64" fill="none" xmlns="http://www.w3.org/2000/svg">
<path d="M13.0955 61.9027C11.8628 61.0809 10.768 60.0689 9.85211 58.9044C8.85354 57.6973 7.92798 56.4275 7.07802 55.1135C5.08202 52.1939 3.51888 49.0009 2.43717 45.6336C1.13356 41.7176 0.5 37.9684 0.5 34.3C0.5 30.2067 1.38646 26.6348 3.11244 23.6365C4.39945 21.2873 6.28938 19.3235 8.58761 17.9475C10.8145 16.5663 13.3721 15.8098 15.9921 15.7575C16.9046 15.7575 17.8954 15.8878 18.9383 16.1486C19.6944 16.3571 20.6069 16.6961 21.728 17.1132C23.162 17.6607 23.9442 17.9997 24.2049 18.0779C25.0392 18.3908 25.7431 18.5211 26.2907 18.5211C26.7078 18.5211 27.3075 18.3908 27.9723 18.1822C28.3504 18.0518 29.0673 17.8172 30.0842 17.374C31.0906 17.0089 31.8884 16.6961 32.5219 16.4614C33.4866 16.1746 34.42 15.9139 35.2595 15.7835C36.2763 15.6271 37.2853 15.575 38.2526 15.6532C40.1037 15.7835 41.7984 16.1746 43.3106 16.7482C45.97 17.8172 48.1157 19.4858 49.7166 21.8584C49.0387 22.2755 48.4129 22.7605 47.8263 23.2923C46.5566 24.4135 45.4798 25.7431 44.6194 27.2162C43.5013 29.2244 42.9228 31.488 42.9404 33.7864C42.9795 36.61 43.6965 39.0921 45.1304 41.2431C46.1748 42.8382 47.5362 44.2014 49.1299 45.2478C49.9382 45.7953 50.6473 46.1733 51.32 46.421C51.0071 47.3987 50.663 48.3504 50.2641 49.289C49.3594 51.393 48.2826 53.4084 47.005 55.3117C45.8787 56.9542 44.9923 58.1796 44.3196 58.9878C43.2715 60.2393 42.2599 61.1779 41.2431 61.848C40.122 62.591 38.8053 62.9847 37.4574 62.9847C36.5449 63.0238 35.6323 62.9065 34.7615 62.6536C34.0054 62.4059 33.2598 62.1269 32.5297 61.8115C31.7648 61.4615 30.9764 61.1653 30.1702 60.925C29.1795 60.666 28.1594 60.5371 27.1354 60.5417C26.0925 60.5417 25.0757 60.6721 24.111 60.9198C23.3028 61.1492 22.5206 61.4308 21.7463 61.7671C20.6512 62.2234 19.9342 62.5232 19.5171 62.6536C18.6766 62.9023 17.8107 63.0553 16.9359 63.1099C15.5802 63.1099 14.3183 62.7188 13.0616 61.9366L13.0955 61.9027ZM30.9654 13.7734C29.1925 14.6598 27.5082 15.0353 25.8214 14.9101C25.5606 13.2259 25.8214 11.4947 26.5253 9.59921C27.151 7.98273 27.9853 6.52269 29.1325 5.21907C30.3318 3.86332 31.7658 2.74221 33.3823 1.93397C35.1031 1.04752 36.7456 0.578217 38.31 0.5C38.5185 2.27291 38.31 4.01975 37.6581 5.89695C37.0581 7.56447 36.1762 9.11659 35.0509 10.4857C33.9168 11.8414 32.5089 12.9625 30.9159 13.7708L30.9654 13.7734Z" fill="black"/>
</svg>
