<svg width="52" height="64" viewBox="0 0 23 4" fill="none" xmlns="http://www.w3.org/2000/svg">
<path d="M18.2881 0.801286L18.3294 3.22143H18.3087L17.608 0.802185H16.4555V3.84938H17.2173L17.1759 1.34748H17.1966L17.9476 3.84938H19.0499V0.802185L18.2881 0.801286ZM3.77977 0.801286L3.20393 3.88082H4.0376L4.45982 1.07977H4.48049L4.89283 3.88082H5.71571L5.14975 0.802185L3.77977 0.801286ZM8.43411 0.801286L8.05321 3.14957H8.03255L7.65165 0.802185H6.39666L6.33467 3.88082H7.10725L7.12792 1.11122H7.1378L7.65255 3.88082H8.43501L8.94976 1.11122H8.97043L8.99109 3.88082H9.76367L9.6918 0.802185L8.43411 0.801286ZM1.90672 3.00583C1.93014 3.07906 1.93355 3.15722 1.9166 3.23222C1.89594 3.33463 1.82407 3.43794 1.61835 3.43794C1.42251 3.43794 1.30932 3.32474 1.30932 3.15945V2.8612H0.485535V3.09836C0.485535 3.78829 1.03083 3.99401 1.60847 3.99401C2.16365 3.99401 2.62719 3.79817 2.69906 3.2933C2.74039 3.0256 2.70984 2.85132 2.69906 2.78933C2.55533 2.14072 1.38119 1.95476 1.29854 1.59453C1.28826 1.54021 1.28826 1.48445 1.29854 1.43013C1.3192 1.32682 1.39197 1.22351 1.57703 1.22351C1.76209 1.22351 1.8645 1.3376 1.8645 1.502V1.68706H2.63708V1.47145C2.63708 0.802185 2.02979 0.698875 1.59769 0.698875C1.05149 0.698875 0.598726 0.883935 0.516078 1.37892C0.489042 1.51517 0.492725 1.65573 0.526859 1.79037C0.649932 2.42819 1.7522 2.61415 1.90672 3.00493M11.9251 3.00493C11.9556 3.0768 11.9449 3.17023 11.935 3.23222C11.9143 3.33463 11.8424 3.43794 11.6367 3.43794C11.4409 3.43794 11.3277 3.32474 11.3277 3.15945V2.8612H10.5039V3.09836C10.5039 3.77751 11.0393 3.98323 11.6161 3.98323C12.1721 3.98323 12.6249 3.79817 12.6968 3.28342C12.7381 3.01571 12.7076 2.85132 12.6968 2.77855C12.5737 2.14072 11.4094 1.94488 11.3277 1.59453C11.3173 1.54022 11.3173 1.48444 11.3277 1.43013C11.3484 1.32682 11.4202 1.22351 11.6062 1.22351C11.7805 1.22351 11.8936 1.3376 11.8936 1.502V1.68706H12.6554V1.47145C12.6554 0.802185 12.058 0.698875 11.6259 0.698875C11.0806 0.698875 10.6378 0.874053 10.5551 1.37892C10.5344 1.51278 10.5344 1.63585 10.5659 1.79037C10.689 2.42819 11.7697 2.60337 11.9251 3.00493ZM14.5195 3.41727C14.7351 3.41727 14.798 3.27354 14.8178 3.19089C14.8286 3.15945 14.8285 3.10824 14.8285 3.0777V0.801286H15.6101V3.01482C15.6101 3.0768 15.6101 3.18999 15.6011 3.22143C15.549 3.79728 15.0963 3.98234 14.5294 3.98234C13.9634 3.98234 13.5107 3.79728 13.4586 3.22054C13.4586 3.18999 13.4487 3.0768 13.4487 3.01482V0.801286H14.2303V3.0768C14.2303 3.11812 14.2303 3.15855 14.241 3.18999C14.241 3.27174 14.3039 3.41638 14.5195 3.41638M20.9445 3.38583C21.1709 3.38583 21.2428 3.2421 21.2634 3.15855C21.2733 3.12801 21.2733 3.0768 21.2733 3.04536V2.60247H20.9544V2.14971H22.0459V2.97349C22.0459 3.03548 22.0459 3.0768 22.036 3.18011C21.9839 3.74607 21.4997 3.94101 20.9544 3.94101C20.4091 3.94101 19.9249 3.74607 19.8737 3.17921C19.8629 3.0768 19.8629 3.03548 19.8629 2.97349V1.67628C19.8629 1.62507 19.8737 1.52176 19.8737 1.46966C19.9455 0.893817 20.4091 0.708757 20.9544 0.708757C21.4997 0.708757 21.974 0.893816 22.0351 1.47056C22.0459 1.56309 22.0459 1.67628 22.0459 1.67628V1.77959H21.2733V1.60441C21.2733 1.60441 21.2733 1.53254 21.2634 1.49122C21.2526 1.41935 21.1915 1.26483 20.9544 1.26483C20.728 1.26483 20.6669 1.40857 20.6453 1.49122C20.6355 1.53164 20.6355 1.58375 20.6355 1.63495V3.04536C20.6355 3.08668 20.6355 3.12801 20.6453 3.15855C20.6453 3.2412 20.728 3.38583 20.9445 3.38583Z" fill="black"/>
</svg>
